<?xml version="1.0" standalone="no"?>
<!DOCTYPE svg PUBLIC "-//W3C//DTD SVG 1.1//EN" "http://www.w3.org/Graphics/SVG/1.1/DTD/svg11.dtd" >
<svg xmlns="http://www.w3.org/2000/svg">
<metadata>
This is a custom SVG webfont generated by Font Squirrel.
Copyright   : Copyright 2010 URW Design  Development Hamburg
Foundry URL : wwwurwppde
</metadata>
<defs>
<font id="webfonteZcZ4LeR" horiz-adv-x="1202" >
<font-face units-per-em="2048" ascent="1366" descent="-682" />
<missing-glyph horiz-adv-x="512" />
<glyph unicode=" "  horiz-adv-x="512" />
<glyph unicode="&#x09;" horiz-adv-x="512" />
<glyph unicode="&#xa0;" horiz-adv-x="512" />
<glyph unicode="!" horiz-adv-x="563" d="M408 250v-250h-250v250h250zM438 1366l-100 -952h-105l-96 952h301z" />
<glyph unicode="&#x22;" horiz-adv-x="774" d="M297 817h-158l-33 549h224zM633 817h-156l-35 549h226z" />
<glyph unicode="#" d="M1151 993l-35 -192h-198l-37 -209h198l-35 -193h-200l-70 -399h-186l71 399h-217l-71 -399h-189l72 401h-205l33 191h209l37 209h-207l35 192h206l66 373h186l-65 -373h215l65 373h187l-68 -373h203zM729 801h-215l-37 -209h215z" />
<glyph unicode="$" d="M657 -174h-135v184q-182 14 -306 108.5t-169 252.5l215 49q25 -102 94.5 -162.5t165.5 -64.5v395q-164 41 -243 80q-86 41 -133.5 119.5t-47.5 179.5q0 121 62.5 212t177.5 134q78 31 184 43v143h135v-143q150 -18 257.5 -102.5t136.5 -204.5l-203 -43q-31 84 -73 120.5 t-118 44.5v-350l56 -14q137 -37 198.5 -66.5t102.5 -81.5q84 -100 84 -243q0 -211 -168 -320q-102 -68 -273 -86v-184zM522 836v335q-96 -2 -149.5 -46t-53.5 -124q0 -72 47 -110.5t156 -54.5zM657 575v-382q102 6 162 58t60 138q0 76 -53.5 121t-168.5 65z" />
<glyph unicode="%" horiz-adv-x="1579" d="M1202 750q152 0 244 -132q70 -96 70 -253q0 -168 -90.5 -272.5t-235.5 -104.5q-137 0 -224 103.5t-87 264.5q0 170 92 282t231 112zM1206 600q-68 0 -104.5 -60.5t-36.5 -172.5q0 -233 135 -234q63 0 98 63.5t35 180.5q0 223 -127 223zM1290 1366l-846 -1366h-151 l848 1366h149zM385 1378q137 0 219 -82q102 -109 103 -305q0 -160 -92.5 -266.5t-231.5 -106.5t-228 109t-89 279q0 164 89 268t230 104zM389 1233q-135 0 -135 -227q0 -240 129 -240q66 0 102.5 57.5t36.5 163.5q0 246 -133 246z" />
<glyph unicode="&#x26;" horiz-adv-x="1468" d="M1223 827l204 -34q-45 -299 -241 -517q66 -70 97.5 -89t84.5 -19q29 0 59 4v-190q-70 -2 -94 -2q-96 0 -155.5 27.5t-149.5 117.5q-207 -145 -448 -145q-221 0 -367.5 121.5t-146.5 306.5q0 180 139 297q66 53 215 122q-72 88 -95.5 140.5t-23.5 119.5q0 133 99.5 216 t256.5 83q162 0 262.5 -81.5t100.5 -212.5q0 -215 -266 -332l297 -338q139 176 172 405zM897 276l-358 402q-68 -29 -136 -92q-68 -61 -67 -164q0 -109 78 -176.5t202 -67.5q150 0 281 98zM643 907q174 76 174 180q0 55 -40 90t-101.5 35t-103.5 -34.5t-42 -85.5 q0 -85 113 -185z" />
<glyph unicode="'" horiz-adv-x="438" d="M297 817h-158l-33 549h224z" />
<glyph unicode="(" horiz-adv-x="600" d="M545 -342h-135q-344 375 -344 872q0 281 129 531q104 203 215 305h135q-104 -156 -135 -209t-64 -141q-90 -242 -90 -494q0 -481 289 -864z" />
<glyph unicode=")" horiz-adv-x="600" d="M55 1366h135q346 -381 347 -872q0 -281 -129 -531q-109 -205 -218 -305h-135q102 154 134 208t65 142q90 238 90 494q0 481 -289 864z" />
<glyph unicode="*" d="M696 1378l-24 -340l311 117l49 -180l-317 -70l203 -250l-158 -106l-158 274l-160 -274l-155 106l202 250l-317 70l49 180l309 -117l-22 340h188z" />
<glyph unicode="+" d="M1106 784v-190h-410v-424h-190v424h-412v190h412v426h190v-426h410z" />
<glyph unicode="," horiz-adv-x="493" d="M371 256v-229l-160 -320h-88l119 293h-119v256h248z" />
<glyph unicode="-" horiz-adv-x="493" d="M498 612v-186h-502v186h502z" />
<glyph unicode="." horiz-adv-x="493" d="M371 262v-262h-248v262h248z" />
<glyph unicode="/" horiz-adv-x="980" d="M922 1366l-895 -1708h-142l889 1708h148z" />
<glyph unicode="0" d="M596 1386q248 0 390 -191t142 -523q0 -260 -114 -453q-135 -240 -418 -239q-244 0 -384 186t-140 508q0 326 143 514q148 198 381 198zM602 1204q-281 0 -280 -514q0 -266 66.5 -392t207.5 -126q279 0 278 502q0 223 -47 354q-35 92 -88 134t-137 42z" />
<glyph unicode="1" d="M1184 0h-1045v201h412v864q-201 -180 -373 -248v248q131 49 183.5 75.5t111.5 78.5q123 106 162 174h164v-1192h385v-201z" />
<glyph unicode="2" d="M1092 213v-213h-1006v240l256 170q184 121 239.5 161.5t123.5 106.5q127 125 126 254q0 104 -68.5 171.5t-172.5 67.5q-231 0 -266 -284l-238 59q31 164 125 273q147 168 389 167q223 0 359.5 -125.5t136.5 -332.5q0 -221 -207 -391q-78 -63 -141 -104l-367 -220h711z " />
<glyph unicode="3" d="M430 602v195h125q121 0 191.5 54t70.5 146q0 90 -60.5 142.5t-166.5 52.5q-104 0 -169 -47t-106 -154l-225 41q41 162 179.5 258t328.5 96q205 0 335 -102t130 -264q0 -125 -69.5 -210t-184.5 -99q141 -27 219 -113t78 -217q0 -178 -144.5 -289.5t-373.5 -111.5 q-254 0 -414 157q-92 88 -123 205l232 57q70 -227 303 -227q117 0 191.5 59.5t74.5 153.5q0 51 -28.5 102.5t-73.5 79.5q-57 35 -152 35h-168z" />
<glyph unicode="4" d="M928 0h-252v309h-606v180l606 904h252v-873h205v-211h-205v-309zM694 1137l-387 -617h369v377q0 58 18 240z" />
<glyph unicode="5" d="M217 1366h848l-21 -211h-647l-39 -397q72 86 144.5 121.5t175.5 35.5q197 0 334 -134t137 -326q0 -182 -127 -320q-150 -156 -406 -155q-274 0 -428 159q-72 74 -108 213l235 37q70 -209 289 -209q125 0 202 76t77 201q0 117 -73 193.5t-185 76.5q-176 0 -267 -158 l-219 43z" />
<glyph unicode="6" d="M1087 1055l-208 -41q-35 102 -91.5 147t-150.5 45q-106 0 -173 -57t-104 -182q-35 -111 -34 -236v-59q55 96 116 137q98 68 240 68q195 0 323 -123t128 -310q0 -203 -139.5 -333.5t-354.5 -130.5q-258 0 -408.5 185t-150.5 503q0 330 148.5 524t400.5 194 q111 0 208 -37.5t156 -105.5q61 -69 94 -188zM625 686q-111 0 -183.5 -75.5t-72.5 -190.5q0 -117 73.5 -188.5t192.5 -71.5q115 0 188.5 70.5t73.5 179.5q0 121 -76.5 198.5t-195.5 77.5z" />
<glyph unicode="7" d="M125 1366h969v-174q-242 -317 -327 -551.5t-108 -640.5h-280q20 344 141 618.5t365 536.5h-781z" />
<glyph unicode="8" d="M346 674q-88 47 -131 83t-72 91q-37 74 -37 153q0 174 137.5 279.5t362.5 105.5q219 0 351.5 -96t132.5 -258q0 -102 -55.5 -169.5t-188.5 -127.5q111 -49 168 -94q129 -102 129 -264q0 -178 -152.5 -287.5t-402.5 -109.5q-242 0 -386.5 99t-144.5 267q0 115 67.5 193 t221.5 135zM516 594q-223 -88 -223 -236q0 -88 86 -144t223 -56q131 0 210 50t79 132q0 80 -75 130t-300 124zM676 807q102 47 146 96t44 121q0 84 -72.5 138.5t-185 54.5t-183.5 -49.5t-71 -127t64.5 -124t257.5 -109.5z" />
<glyph unicode="9" d="M121 248l207 57q39 -61 65 -86q66 -55 166 -55q152 0 236 141t86 402q-63 -113 -125 -154q-92 -63 -232 -64q-197 0 -323.5 123t-126.5 316q0 203 136 330.5t353 127.5q244 0 393 -161q162 -176 162 -504q0 -311 -135 -516q-152 -225 -430 -225q-158 0 -271.5 70.5 t-160.5 197.5zM571 1200q-115 0 -188.5 -72.5t-73.5 -185.5q0 -109 74 -181.5t186.5 -72.5t191.5 74t79 180q0 113 -75 185.5t-194 72.5z" />
<glyph unicode=":" horiz-adv-x="493" d="M371 250v-250h-248v250h248zM371 944v-250h-248v250h248z" />
<glyph unicode=";" horiz-adv-x="493" d="M371 256v-229l-160 -320h-88l119 293h-119v256h248zM371 944v-250h-248v250h248z" />
<glyph unicode="&#x3c;" d="M1024 1221v-230l-641 -309l641 -311v-230l-887 443v196z" />
<glyph unicode="=" d="M1106 924v-191h-1012v191h1012zM1106 625v-191h-1012v191h1012z" />
<glyph unicode="&#x3e;" d="M178 141v232l641 309l-641 311v228l887 -443v-194z" />
<glyph unicode="?" horiz-adv-x="1028" d="M641 250v-250h-235v250h235zM600 391h-194v135q0 68 25.5 106t121.5 111q141 111 141 234q0 90 -55 144.5t-145 54.5q-152 0 -205 -138q-23 -55 -37 -147l-217 39q14 203 149 329.5t336 126.5q190 0 316.5 -113.5t126.5 -283.5q0 -160 -125 -289q-27 -25 -174 -133 q-41 -29 -51.5 -58.5t-12.5 -117.5z" />
<glyph unicode="@" horiz-adv-x="1468" d="M1098 1040l-56 -465q-6 -49 -6 -94q0 -68 47 -67q82 0 149.5 111.5t67.5 246.5q0 213 -151.5 352.5t-382.5 139.5q-244 0 -411 -167t-167 -413q0 -158 74 -290t203 -206q127 -76 317 -75q125 0 218.5 23.5t232.5 92.5l59 -135q-250 -125 -508 -125q-233 0 -407 97 q-164 94 -258 258.5t-94 357.5q0 303 213 509t526 206q289 0 483.5 -177.5t194.5 -441.5q0 -205 -111.5 -354.5t-265.5 -149.5q-125 0 -170 105q-88 -109 -209 -109q-133 0 -221 109.5t-88 275.5q0 172 98 287t246 115q137 0 197 -86l8 69h172zM735 893q-80 0 -130 -68.5 t-50 -177.5q0 -94 40 -153.5t101 -59.5q84 0 147.5 79t63.5 185q0 84 -49 139.5t-123 55.5z" />
<glyph unicode="A" horiz-adv-x="1234" d="M1221 0h-265l-108 326h-524l-109 -326h-209l453 1366h303zM782 522l-198 611l-199 -611h397z" />
<glyph unicode="B" horiz-adv-x="1243" d="M150 0v1366h532q115 0 179.5 -15.5t121.5 -54.5q141 -98 141 -284q0 -119 -63.5 -197t-183.5 -106q104 -20 161 -66q129 -94 129 -272q0 -166 -110 -271q-106 -100 -312 -100h-595zM383 205h317q100 0 159 53t59 143q0 88 -59.5 142.5t-156.5 54.5h-319v-393zM383 793 h299q90 0 144.5 53t54.5 143q0 82 -55.5 132t-147.5 50h-295v-378z" />
<glyph unicode="C" horiz-adv-x="1185" d="M913 475l228 -26q-16 -111 -45 -177.5t-88 -132.5q-145 -160 -383 -159q-248 0 -381 170q-166 207 -166 534q0 319 150.5 510.5t404.5 191.5q209 0 339 -123.5t169 -359.5l-228 -24q-35 145 -84 213q-70 96 -194 96q-139 0 -215 -130t-76 -368q0 -240 79 -372t220 -132 q106 0 180 80t90 209z" />
<glyph unicode="D" horiz-adv-x="1341" d="M143 0v1366h502q258 0 422 -170q195 -201 195 -510q0 -356 -236 -551q-162 -135 -436 -135h-447zM395 201h205q180 0 287.5 133t107.5 356q0 211 -102 346t-264 135h-234v-970z" />
<glyph unicode="E" horiz-adv-x="1099" d="M1036 0h-886v1366h878v-203h-633v-370h508v-199h-508v-383h641v-211z" />
<glyph unicode="F" horiz-adv-x="1040" d="M401 0h-251v1366h862v-211h-611v-375h482v-205h-482v-575z" />
<glyph unicode="G" horiz-adv-x="1314" d="M1186 698v-698h-109l-76 184q-127 -205 -368 -204q-274 0 -416 208q-139 205 -139 498q0 291 149 492q154 209 435 208q244 0 391 -174q80 -90 116 -243l-215 -37q-25 98 -61 145q-84 104 -225 105q-147 0 -234 -113q-96 -125 -96 -371q0 -516 324 -516q188 0 266 174 q27 57 26 144h-282v198h514z" />
<glyph unicode="H" horiz-adv-x="1312" d="M1163 0h-245v594h-523v-594h-245v1366h245v-561h523v561h245v-1366z" />
<glyph unicode="I" horiz-adv-x="546" d="M395 0h-245v1366h245v-1366z" />
<glyph unicode="J" horiz-adv-x="759" d="M625 1366v-942q0 -205 -70 -301q-57 -78 -139 -110.5t-219 -32.5q-115 0 -197 20v199q137 -8 158 -9q135 0 184 62q31 41 31 172v942h252z" />
<glyph unicode="K" horiz-adv-x="1257" d="M1223 0h-275l-289 696l-264 -350v-346h-245v1366h245v-719l68 103l455 616h247l-323 -448z" />
<glyph unicode="L" horiz-adv-x="1019" d="M989 0h-839v1366h260v-1143h579v-223z" />
<glyph unicode="M" horiz-adv-x="1640" d="M1489 0h-252v1196l-379 -1196h-129l-379 1196v-1196h-200v1366h385l284 -881l283 881h387v-1366z" />
<glyph unicode="N" horiz-adv-x="1331" d="M1180 0h-226l-532 872l-37 74l-37 74v-1020h-198v1366h272l477 -805q0 -2 6 -13l17 -30l18 -33l45 -88v969h195v-1366z" />
<glyph unicode="O" horiz-adv-x="1316" d="M664 1386q262 0 418.5 -194.5t156.5 -519.5q0 -309 -162 -500.5t-424 -191.5q-274 0 -424 202q-152 205 -151 506q0 307 164 502.5t422 195.5zM662 1188q-174 0 -246 -141q-72 -137 -72 -367q0 -244 80 -373t231 -129q82 0 152 43t104 115q61 123 62 332q0 520 -311 520z " />
<glyph unicode="P" horiz-adv-x="1226" d="M395 0h-245v1366h559q174 0 286 -68q184 -117 185 -342q0 -182 -124 -298.5t-319 -116.5h-342v-541zM395 752h291q109 0 172.5 54t63.5 148q0 96 -62 152q-57 55 -196 55h-269v-409z" />
<glyph unicode="Q" horiz-adv-x="1316" d="M1182 -72v-207q-88 -10 -142 -10q-178 0 -249 88q-45 53 -54 178q-70 -4 -96 -4q-252 0 -401 187q-162 199 -162 514q0 328 157.5 520t426.5 192q289 0 444 -233q131 -190 131 -471q0 -324 -172 -522q-51 -59 -137 -115q-27 -18 -27 -41q0 -37 32 -60.5t83 -23.5 q16 0 106 4q7 0 60 4zM662 1188q-317 0 -318 -512q0 -496 307 -496q166 0 248 142q31 51 51.5 152t20.5 200q0 514 -309 514z" />
<glyph unicode="R" horiz-adv-x="1316" d="M1214 0h-260l-213 561h-346v-561h-245v1366h591q233 0 356.5 -106.5t123.5 -294.5q0 -256 -246 -363zM395 758h307q127 0 195 55t68 156q0 92 -64.5 146t-177.5 54h-328v-411z" />
<glyph unicode="S" horiz-adv-x="1169" d="M6 330l238 51q27 -90 78 -131q88 -72 256 -72q125 0 197.5 52.5t72.5 140.5q0 121 -170 166l-262 67q-193 51 -258 139q-80 100 -80 236q0 182 133 294.5t350 112.5q227 0 377 -118q84 -70 115 -176l-234 -58q-53 154 -256 154q-106 0 -169.5 -46t-63.5 -122 q0 -117 190 -166l234 -57q215 -57 288 -168q66 -96 66 -221q0 -195 -148.5 -311.5t-396.5 -116.5q-256 0 -420 129q-90 74 -137 221z" />
<glyph unicode="T" horiz-adv-x="989" d="M627 0h-265v1155h-362v211h989v-211h-362v-1155z" />
<glyph unicode="U" horiz-adv-x="1218" d="M1087 1366v-879q0 -154 -23.5 -231.5t-90.5 -144.5q-131 -131 -363 -131q-238 0 -364 133q-59 61 -84 142t-25 216v895h252v-879q0 -160 60 -221q68 -72 192 -71q139 0 203 84q49 66 49 208v879h194z" />
<glyph unicode="V" horiz-adv-x="1105" d="M676 0h-250l-422 1366h260l314 -1047l319 1047h205z" />
<glyph unicode="W" horiz-adv-x="1808" d="M1788 1366l-365 -1366h-258l-272 1004l-248 -1004h-252l-373 1366h263l262 -995l246 995h249l273 -995l258 995h217z" />
<glyph unicode="X" horiz-adv-x="1161" d="M1149 0h-287l-303 539l-319 -539h-230l432 713l-370 653h284l254 -455l267 455h229l-379 -623z" />
<glyph unicode="Y" horiz-adv-x="1114" d="M698 0h-260v575l-465 791h297l324 -563l309 563h238l-443 -791v-575z" />
<glyph unicode="Z" horiz-adv-x="1091" d="M1051 211v-211h-1010v193l700 978h-651v195h940v-195l-690 -960h711z" />
<glyph unicode="[" horiz-adv-x="600" d="M481 1202h-166v-1380h166v-164h-344v1708h344v-164z" />
<glyph unicode="\" horiz-adv-x="980" d="M61 1366h146l891 -1708h-144z" />
<glyph unicode="]" horiz-adv-x="600" d="M119 -178h166v1380h-166v164h344v-1708h-344v164z" />
<glyph unicode="^" horiz-adv-x="1024" d="M266 702h-243l337 670h306l338 -670h-244l-248 486z" />
<glyph unicode="_" horiz-adv-x="1024" d="M0 -106h1024v-209h-1024v209z" />
<glyph unicode="`" horiz-adv-x="1024" d="M281 1487l393 -219l-41 -107l-418 176z" />
<glyph unicode="a" horiz-adv-x="1105" d="M1001 0h-219q-27 98 -34 205q-51 -119 -133.5 -172t-208.5 -53q-147 0 -240.5 86t-93.5 223q0 242 290 313q139 35 386 35v76q0 156 -216 155q-104 0 -159.5 -36.5t-73.5 -118.5l-195 28q23 135 134 209q117 80 323 80q250 0 346 -110q39 -43 51.5 -95.5t12.5 -165.5 v-454q-1 -90 30 -205zM748 422v92q-442 0 -443 -211q0 -70 47 -110.5t131 -40.5q119 0 192 74.5t73 195.5z" />
<glyph unicode="b" horiz-adv-x="1101" d="M240 0h-103v1366h228v-494q63 106 123.5 145.5t156.5 39.5q174 0 279.5 -145.5t105.5 -387.5q0 -238 -117 -397q-113 -147 -303 -147q-104 0 -172.5 41.5t-136.5 144.5zM365 582v-150q0 -127 54 -196.5t154 -69.5q106 0 162 90q53 88 56 276q-8 174 -60 250 q-51 78 -151 78q-98 0 -156.5 -75.5t-58.5 -202.5z" />
<glyph unicode="c" horiz-adv-x="954" d="M719 371l196 -21q-31 -141 -94 -223q-113 -147 -319 -147q-193 0 -311.5 144t-118.5 379.5t125 381t325 145.5q197 0 301 -127q68 -80 92 -221l-196 -27q-25 188 -184 189q-104 0 -163 -92.5t-59 -255.5q0 -150 55.5 -234t151.5 -84q152 0 199 193z" />
<glyph unicode="d" horiz-adv-x="1101" d="M967 0h-213v203q-47 -117 -119 -170t-178 -53q-170 0 -271 129q-51 68 -82.5 180t-31.5 229q0 262 141 422q94 111 256 111q188 0 270 -179v494h228v-1366zM739 424v172q0 121 -53 184q-63 76 -156 76q-104 0 -160.5 -91t-56.5 -259q0 -340 211 -340q90 0 152.5 74.5 t62.5 183.5z" />
<glyph unicode="e" horiz-adv-x="1073" d="M778 324l207 -29q-104 -315 -448 -315q-211 0 -338 142t-127 379.5t131 383t344 145.5q219 0 335.5 -143.5t118.5 -409.5h-692v-28q2 -137 64.5 -213t177.5 -76q88 0 140 38t87 126zM309 625h457q-6 96 -51 157q-66 88 -176 88q-96 0 -156 -63t-74 -182z" />
<glyph unicode="f" horiz-adv-x="647" d="M391 0h-219v831h-149v179h149v25q0 100 14 155q16 61 61.5 110.5t109 69t178.5 19.5q43 0 81 -3v-180q-29 4 -61 4q-109 0 -141 -43q-16 -20 -19.5 -44.5t-3.5 -112.5h225v-179h-225v-831z" />
<glyph unicode="g" horiz-adv-x="1060" d="M1059 1202v-174h-70q-61 0 -90 -16.5t-57 -65.5q66 -55 92.5 -105t26.5 -114q0 -135 -114 -222t-294 -87q-76 0 -191 26q-70 -37 -69 -96q0 -47 37 -74.5t100 -27.5h301q147 0 238.5 -77t91.5 -200q0 -154 -141.5 -242.5t-384.5 -88.5q-489 0 -490 274q0 72 33 117 t115 88q-53 47 -74 83t-21 83q0 70 37 118t125 93q-78 51 -109.5 103t-31.5 128q0 123 88 201q106 104 332 104q88 0 192 -20q29 102 85 147t157 45h86zM545 887q-86 0 -138.5 -46t-52.5 -122t51.5 -121t135.5 -45q86 0 136 43t50 117q0 84 -47 129t-135 45zM696 31h-241 q-76 0 -164 24q-49 -47 -49 -88q0 -80 92 -127t250 -47q264 0 264 135q0 47 -41 75t-111 28z" />
<glyph unicode="h" horiz-adv-x="1110" d="M975 0h-227v662q0 195 -156 194q-57 0 -107.5 -30.5t-76.5 -80.5q-43 -80 -43 -221v-524h-228v1366h228v-532q47 115 119.5 167t181.5 52q182 0 260 -129q49 -88 49 -230v-694z" />
<glyph unicode="i" horiz-adv-x="501" d="M365 0h-228v1010h228v-1010zM365 1128h-228v238h228v-238z" />
<glyph unicode="j" horiz-adv-x="501" d="M365 1010v-1039q0 -377 -349 -377q-55 0 -116 13v192q37 -4 75 -4q96 0 129 36t33 140v1039h228zM365 1128h-228v238h228v-238z" />
<glyph unicode="k" horiz-adv-x="1089" d="M1077 0h-239l-258 518l-224 -252v-266h-219v1366h219v-848l28 36q15 19 17 21l400 435h246l-304 -334z" />
<glyph unicode="l" horiz-adv-x="501" d="M365 0h-228v1366h228v-1366z" />
<glyph unicode="m" horiz-adv-x="1781" d="M1647 0h-240v629q0 195 -174 194q-106 0 -163.5 -76.5t-57.5 -216.5v-530h-242v629q0 78 -22 121q-43 78 -142 77q-102 0 -167.5 -82.5t-65.5 -214.5v-530h-236v1010h221v-215q59 115 111 157q90 78 225 78q219 0 291 -235q123 236 338 235q141 0 232.5 -89t91.5 -226 v-715z" />
<glyph unicode="n" horiz-adv-x="1107" d="M973 0h-228v631q0 92 -43 146t-114 54q-57 0 -107.5 -33.5t-79.5 -90.5q-37 -74 -36 -189v-518h-228v1010h207v-234q63 137 135 195.5t174 58.5q88 0 166 -42t111 -107q43 -84 43 -230v-651z" />
<glyph unicode="o" horiz-adv-x="1083" d="M545 1030q252 0 383 -207q84 -135 84 -319q0 -231 -133.5 -377.5t-346.5 -146.5q-236 0 -360 186q-100 145 -100 342q0 231 132 376.5t341 145.5zM545 844q-111 0 -171.5 -88t-60.5 -250q0 -164 59.5 -252t168.5 -88q111 0 170 89t59 255q0 162 -58 248t-167 86z" />
<glyph unicode="p" horiz-adv-x="1101" d="M369 -342h-232v1352h219v-176q104 197 308 196q164 0 258 -133q109 -156 108 -385q0 -248 -119 -408q-92 -125 -264 -124q-184 0 -278 161v-483zM369 557v-143q0 -111 61.5 -182.5t157.5 -71.5q94 0 147 89t53 247q0 166 -53 257t-149 91q-94 0 -155.5 -81t-61.5 -206z " />
<glyph unicode="q" horiz-adv-x="1110" d="M973 -342h-238v520q-82 -199 -280 -198q-170 0 -265 124q-119 154 -118 398q0 240 114.5 384t307.5 144q96 0 163.5 -37t133.5 -125l61 142h121v-1352zM735 446v146q0 119 -51 185.5t-141 66.5q-109 0 -169.5 -89t-60.5 -251q0 -156 58.5 -249t154.5 -93q92 0 150.5 79.5 t58.5 204.5z" />
<glyph unicode="r" horiz-adv-x="677" d="M365 0h-228v1010h207v-242q35 131 118 205q75 66 168 66q10 0 21 -1v-245h-14l-39 -2q-98 -4 -165.5 -96.5t-67.5 -227.5v-467z" />
<glyph unicode="s" horiz-adv-x="929" d="M14 231l213 41q33 -68 82 -95t142 -27q96 0 150 32.5t54 91.5q0 37 -29.5 64t-80.5 37l-185 37q-156 29 -230.5 101.5t-74.5 195.5q0 125 80 211q102 111 309 110q317 0 390 -233l-205 -43q-20 61 -63.5 87.5t-121.5 26.5q-82 0 -130 -29.5t-48 -78.5q0 -86 146 -115 l217 -45q254 -49 254 -293q0 -150 -120 -238.5t-321 -88.5q-195 0 -323 94q-72 55 -105 157z" />
<glyph unicode="t" horiz-adv-x="659" d="M604 178v-178q-100 -23 -160 -23q-135 0 -215 80q-39 39 -54 94.5t-15 157.5v522h-125v179h139l21 262l186 16v-278h205v-179h-205v-491q0 -96 35 -130t131 -34q32 0 57 2z" />
<glyph unicode="u" horiz-adv-x="1103" d="M969 0h-213v219q-20 -63 -43 -98t-64 -68q-88 -74 -213 -73q-162 0 -248 122q-51 78 -51 201v707h234v-658q0 -72 20 -110q41 -68 123 -68q59 0 115.5 40t81.5 101q31 70 30 209v486h228v-1010z" />
<glyph unicode="v" horiz-adv-x="909" d="M897 1010l-342 -1010h-190l-351 1010h238l235 -684l232 684h178z" />
<glyph unicode="w" horiz-adv-x="1427" d="M1407 1010l-297 -1010h-205l-182 709l-180 -709h-211l-312 1010h242l201 -680l172 680h207l178 -680l194 680h193z" />
<glyph unicode="x" horiz-adv-x="905" d="M905 0h-262l-213 369l-233 -369h-197l336 520l-291 490h262l166 -297l189 297h190l-285 -439z" />
<glyph unicode="y" horiz-adv-x="905" d="M891 1010l-393 -1151q-41 -117 -105.5 -170.5t-169.5 -53.5q-33 0 -131 9v180q41 -2 113 -2q100 0 133 57q12 20 27.5 63.5t15.5 55.5q0 8 -21 63l-346 949h238l246 -668l211 668h182z" />
<glyph unicode="z" horiz-adv-x="858" d="M809 178v-178h-762v178l498 653h-451v179h715v-162l-492 -670h492z" />
<glyph unicode="{" horiz-adv-x="600" d="M340 1051v-306q0 -96 -26.5 -145t-98.5 -88q70 -39 97.5 -91t27.5 -147v-297q0 -104 37 -134.5t162 -28.5v-154q-72 -2 -90 -2q-156 0 -224.5 67.5t-68.5 221.5v317q0 84 -26 125t-89 55v146q115 27 115 168v334q0 145 70.5 209.5t230.5 64.5q37 0 82 -2v-154 q-125 0 -162 -29.5t-37 -129.5z" />
<glyph unicode="|" horiz-adv-x="1024" d="M395 1366h232v-1708h-232v1708z" />
<glyph unicode="}" horiz-adv-x="600" d="M262 -27v306q0 96 26.5 145t98.5 88q-70 39 -97.5 91t-27.5 147v297q0 104 -37 134.5t-162 28.5v154q72 2 91 2q156 0 224 -67.5t68 -221.5v-317q0 -84 26 -125t89 -55v-146q-115 -27 -115 -168v-334q0 -145 -70.5 -209.5t-230.5 -64.5q-37 0 -82 2v154q125 0 162 29.5 t37 129.5z" />
<glyph unicode="~" d="M233 494l-129 84q61 147 130 208.5t172 61.5q72 0 217 -57q133 -53 184 -53.5t84 24t74 90.5l133 -78q-72 -150 -140 -199q-80 -61 -180 -61q-57 0 -295 90q-55 20 -94 21q-49 0 -83 -28.5t-73 -102.5z" />
<glyph unicode="&#xa1;" horiz-adv-x="563" d="M158 774v250h250v-250h-250zM127 -342l102 952h103l96 -952h-301z" />
<glyph unicode="&#xa2;" d="M561 1450h127v-258q295 -37 352 -336l-186 -35q-29 94 -66.5 137t-99.5 54v-617q113 6 166 183l186 -27q-55 -295 -352 -338v-281h-127v281q-139 23 -223 96q-164 139 -164 389q0 244 150 383q94 90 237 111v258zM561 395v617q-78 -18 -113.5 -93t-35.5 -225 q-1 -256 149 -299z" />
<glyph unicode="&#xa3;" d="M-25 0v227q111 2 162 15.5t92 54.5q82 76 82 184q0 45 -12 142h-158v178h138q-16 115 -17 170q0 184 115 299.5t297 115.5q162 0 268 -86q63 -51 123 -163l-193 -90q-53 154 -188 153q-82 0 -128 -55t-46 -156q0 -76 31 -188h247v-178h-247v-48q0 -123 -32 -193.5 t-122 -154.5h262q184 0 254 43q41 25 59.5 56.5t28.5 93.5l215 -109q-49 -131 -133 -207q-63 -59 -135 -81.5t-199 -22.5h-764z" />
<glyph unicode="&#xa4;" horiz-adv-x="1366" d="M61 274l207 205q-94 133 -94 285q0 147 94 283l-209 208l127 127l207 -208q143 96 290.5 96t285.5 -92l205 202l126 -127l-204 -202q96 -147 96 -289q0 -143 -92 -281l205 -207l-125 -127l-207 205q-137 -94 -289 -94q-145 0 -291 94l-205 -205zM688 1063 q-127 0 -214 -87t-87 -212t87 -212t210 -87t210 87t87 212q0 123 -86 211t-207 88z" />
<glyph unicode="&#xa5;" d="M109 866h223l-273 500h285l295 -565l281 565h223l-256 -500h209v-123h-273l-86 -168v-32h359v-123h-359v-420h-248v420h-380v123h380v32l-92 168h-288v123z" />
<glyph unicode="&#xa6;" horiz-adv-x="1024" d="M395 1366h232v-702h-232v702zM395 313h232v-655h-232v655z" />
<glyph unicode="&#xa7;" d="M123 -63l219 43q86 -168 279 -168q96 0 156.5 43t60.5 110q0 59 -42 98t-151 80l-215 80q-133 49 -180 113q-66 88 -66 199q0 166 158 264q-70 57 -97.5 108t-27.5 125q0 158 116 252t310 94q305 0 416 -248l-187 -53q-55 152 -245 152q-94 0 -146.5 -35t-52.5 -96 q0 -51 38 -86t122 -64l180 -61q152 -53 220.5 -130t68.5 -196q0 -74 -29 -132t-104 -136q82 -55 117.5 -118.5t35.5 -158.5q0 -174 -125 -272t-344 -98q-186 0 -296.5 66.5t-188.5 224.5zM596 420l188 -68q74 74 74 140q0 113 -178 174l-215 73q-74 -66 -74 -129 q0 -116 205 -190z" />
<glyph unicode="&#xa8;" horiz-adv-x="1024" d="M342 1409q47 0 79 -31.5t32 -81.5q0 -47 -32 -77.5t-81 -30.5q-45 0 -77 30.5t-32 77.5t32 80t79 33zM676 1409q47 0 78.5 -31.5t31.5 -81.5q0 -47 -31.5 -77.5t-80.5 -30.5q-47 0 -78 30.5t-31 77.5t32 80t79 33z" />
<glyph unicode="&#xa9;" horiz-adv-x="1583" d="M956 567l166 -18q-16 -96 -51 -150q-96 -139 -283 -139q-158 0 -245 100q-106 125 -107 322q0 193 97.5 307.5t259.5 114.5q274 0 329 -297l-164 -16q-20 72 -30 94q-43 88 -133 88q-82 0 -126 -75t-44 -212t46 -214t128 -77q66 0 107.5 45t49.5 127zM803 1395 q287 0 492.5 -210t205.5 -503t-208 -502t-498 -209q-293 0 -502 209t-209 502q0 299 209 506t510 207zM803 1280q-250 0 -421 -173t-171 -425q0 -246 171 -421t413 -175q240 0 409.5 175t169.5 421t-169 422t-402 176z" />
<glyph unicode="&#xaa;" horiz-adv-x="731" d="M657 770h-155q-2 6 -6 14q-2 6 -2 9l-13 63v2l-4 -4q-43 -47 -53 -55t-33 -19q-57 -23 -117 -22q-96 0 -156.5 53t-60.5 137q0 213 392 213h28v37q0 86 -123 86q-63 0 -94 -20.5t-43 -73.5l-141 20q33 182 299 183q156 0 219 -66q43 -45 43 -160v-270q0 -51 20 -127z M477 1026v47q-252 0 -252 -117q0 -84 99 -84q70 0 111.5 42t41.5 112z" />
<glyph unicode="&#xab;" horiz-adv-x="673" d="M586 799l-90 -289l90 -289h-90l-166 289l166 289h90zM330 799l-97 -289l97 -289h-97l-157 289l157 289h97z" />
<glyph unicode="&#xac;" d="M813 0v338h-655v209h886v-547h-231z" />
<glyph unicode="&#xad;" horiz-adv-x="493" d="M498 612v-186h-502v186h502z" />
<glyph unicode="&#xae;" horiz-adv-x="1583" d="M1151 272h-184l-133 332h-197v-332h-174v820h379q147 0 228 -63.5t81 -180.5q0 -152 -152 -215zM637 733h180q154 0 154 117q0 53 -38 83t-104 30h-192v-230zM803 1395q287 0 492.5 -210t205.5 -503t-208 -502t-498 -209q-293 0 -502 209t-209 502q0 299 209 506t510 207 zM803 1280q-250 0 -421 -173t-171 -425q0 -246 171 -421t413 -175q240 0 409.5 175t169.5 421t-169 422t-402 176z" />
<glyph unicode="&#xaf;" horiz-adv-x="1024" d="M813 1352v-129h-602v129h602z" />
<glyph unicode="&#xb0;" d="M600 1393q115 0 194.5 -80t79.5 -195q0 -113 -79.5 -192.5t-192.5 -79.5q-115 0 -194.5 81t-79.5 195q0 111 80.5 191t191.5 80zM600 1255q-55 0 -95 -39.5t-40 -95.5q0 -57 40 -97t97 -40q55 0 95 40t40 95q0 57 -40 97t-97 40z" />
<glyph unicode="&#xb1;" d="M1106 784v-190h-410v-424h-190v424h-412v190h412v426h190v-426h410zM1106 102v-190h-1012v190h1012z" />
<glyph unicode="&#xb2;" horiz-adv-x="792" d="M713 686v-139h-647v151l163 105q170 102 228 155q78 72 78 146q0 59 -41 97t-105 38q-139 0 -162 -172l-164 39q25 129 112 200.5t222 71.5q143 0 230.5 -75.5t87.5 -200.5q0 -135 -133 -238q-66 -49 -297 -178h428z" />
<glyph unicode="&#xb3;" horiz-adv-x="792" d="M283 901v129h86q72 0 114.5 30t42.5 81t-35.5 78.5t-101.5 27.5q-63 0 -102 -26.5t-66 -90.5l-153 27q27 102 113.5 161.5t213.5 59.5q131 0 215 -62.5t84 -160.5q0 -133 -129 -182q82 -33 119 -79t37 -118q0 -109 -92 -176.5t-240 -67.5q-131 0 -223 60.5t-125 167.5 l160 37q45 -137 186 -138q72 0 117 34t45 85q0 55 -42 89t-112 34h-112z" />
<glyph unicode="&#xb4;" horiz-adv-x="1024" d="M739 1487l66 -150l-416 -176l-43 107z" />
<glyph unicode="&#xb5;" d="M174 -342v1352h227v-541q0 -150 39 -211q51 -92 160 -92q53 0 99 26.5t69 69.5q35 68 35 207v541h227v-1010h-192v154q-25 -57 -64 -97q-43 -47 -76.5 -62t-91.5 -15q-72 0 -127 37.5t-78 103.5v-463h-227z" />
<glyph unicode="&#xb6;" d="M1155 1366v-115h-149v-1585h-115v1585h-113v-1585h-116v1036h-132q-137 0 -198.5 9.5t-116.5 38.5q-145 74 -145 276q0 76 33.5 148.5t93.5 121.5q49 41 121.5 55.5t218.5 14.5h618zM662 817v434h-107q-104 0 -151.5 -10t-75.5 -39q-57 -57 -58 -182q0 -61 28 -110.5 t73 -69.5q51 -23 161 -23h130z" />
<glyph unicode="&#xb7;" horiz-adv-x="247" d="M248 651v-262h-248v262h248z" />
<glyph unicode="&#xb8;" horiz-adv-x="1024" d="M514 0l-27 -92q86 -4 131 -29q84 -45 84 -133q0 -70 -56 -117t-136 -47q-72 0 -205 60l33 79q86 -49 156 -49q33 0 56 20.5t23 49.5q0 39 -40.5 62.5t-112.5 23.5q-25 0 -45 -2l57 174h82z" />
<glyph unicode="&#xb9;" horiz-adv-x="792" d="M743 545h-618v133h233v489q-119 -96 -235 -143v162l37 12q168 55 254 184h114v-704h215v-133z" />
<glyph unicode="&#xba;" horiz-adv-x="714" d="M358 1393q135 0 218 -87t83 -231q0 -139 -86 -227t-223 -88q-131 0 -214 89t-83 228.5t86 227.5t219 88zM358 1268q-133 0 -133 -191q0 -92 34 -142t95 -50q133 0 133 194q0 189 -129 189z" />
<glyph unicode="&#xbb;" horiz-adv-x="673" d="M88 797h94l160 -293l-160 -281h-94l94 281zM342 797h94l162 -293l-162 -281h-94l94 281z" />
<glyph unicode="&#xbc;" horiz-adv-x="1802" d="M686 545h-618v133h233v489q-119 -96 -235 -143v162l36 12q168 55 254 184h115v-704h215v-133zM387 0l842 1366h147l-844 -1366h-145zM1636 0h-172v182h-381v115l385 539h168v-517h129v-137h-129v-182zM1483 664l-240 -355h232v185q0 57 8 170z" />
<glyph unicode="&#xbd;" horiz-adv-x="1802" d="M692 545h-618v133h233v489q-119 -96 -235 -143v162l37 12q168 55 253 184h115v-704h215v-133zM393 0l842 1366h147l-843 -1366h-146zM1747 139v-139h-649v152q143 90 166 102q172 106 227 158q78 72 78 143q0 59 -41 97t-107 38q-141 0 -161 -170l-164 39 q25 129 111.5 200.5t222.5 71.5q143 0 231 -75.5t88 -200.5q0 -135 -133 -238q-68 -51 -299 -178h430z" />
<glyph unicode="&#xbe;" horiz-adv-x="1802" d="M272 901v129h86q72 0 115 30t43 81t-36 78.5t-101 27.5q-63 0 -102 -26.5t-66 -90.5l-154 27q27 102 114 161.5t214 59.5q131 0 215 -62.5t84 -160.5q0 -133 -129 -182q82 -33 119 -79t37 -118q0 -109 -92.5 -176.5t-239.5 -67.5q-131 0 -223.5 60.5t-124.5 167.5l159 37 q45 -137 187 -138q72 0 117 34t45 85q0 55 -42 89t-112 34h-113zM461 0l844 1366h147l-844 -1366h-147zM1616 0h-172v182h-381v115l385 539h168v-517h129v-137h-129v-182zM1462 664l-239 -355h231v185q0 57 8 170z" />
<glyph unicode="&#xbf;" horiz-adv-x="1028" d="M387 776v248h236v-248h-236zM428 633h195v-135q0 -68 -26 -106t-122 -111q-141 -113 -141 -234q0 -90 55 -144.5t146 -54.5q152 0 204 138q23 55 37 147l217 -39q-20 -209 -152 -332.5t-333 -123.5q-190 0 -316 113.5t-126 283.5q0 160 124 289q31 29 175 133 q41 29 51 57.5t12 118.5z" />
<glyph unicode="&#xc0;" horiz-adv-x="1234" d="M1221 0h-265l-108 326h-524l-109 -326h-209l453 1366h303zM782 522l-198 611l-199 -611h397zM338 1786l410 -191l-41 -106l-431 145z" />
<glyph unicode="&#xc1;" horiz-adv-x="1234" d="M1221 0h-265l-108 326h-524l-109 -326h-209l453 1366h303zM782 522l-198 611l-199 -611h397zM883 1786l61 -152l-430 -145l-39 106z" />
<glyph unicode="&#xc2;" horiz-adv-x="1234" d="M1221 0h-265l-108 326h-524l-109 -326h-209l453 1366h303zM782 522l-198 611l-199 -611h397zM612 1776l357 -260l-191 -21l-166 111l-163 -111l-191 21z" />
<glyph unicode="&#xc3;" horiz-adv-x="1234" d="M1221 0h-265l-108 326h-524l-109 -326h-209l453 1366h303zM782 522l-198 611l-199 -611h397zM887 1735l71 -103q-82 -117 -213 -116q-53 0 -155 47q-76 37 -98 36q-57 0 -138 -79l-73 102q102 117 211 117q55 0 139 -39q96 -43 141 -43q33 0 57.5 16.5t57.5 61.5z" />
<glyph unicode="&#xc4;" horiz-adv-x="1234" d="M1221 0h-265l-108 326h-524l-109 -326h-209l453 1366h303zM782 522l-198 611l-199 -611h397zM436 1733q47 0 79 -32t32 -81q0 -47 -32 -78t-81 -31q-45 0 -76.5 31t-31.5 78t31.5 80t78.5 33zM784 1733q47 0 79 -32t32 -81q0 -47 -32 -78t-81 -31q-45 0 -76.5 31 t-31.5 78t31.5 80t78.5 33z" />
<glyph unicode="&#xc5;" horiz-adv-x="1234" d="M1221 0h-265l-108 326h-524l-109 -326h-209l453 1366h303zM782 522l-198 611l-199 -611h397zM614.5 1825q77.5 0 131 -53.5t53.5 -133.5q0 -78 -54.5 -131t-132.5 -53q-76 0 -130 53.5t-54 131t54.5 132t132 54.5zM618 1720q-39 0 -62.5 -22.5t-23.5 -57.5q0 -37 23 -59 t57 -22q37 0 59.5 22.5t22.5 57t-21.5 58t-54.5 23.5z" />
<glyph unicode="&#xc6;" horiz-adv-x="1732" d="M1669 211v-211h-868v387h-408l-194 -387h-234l727 1366h961v-199h-606v-376h481v-195h-481v-385h622zM801 578v618l-312 -618h312z" />
<glyph unicode="&#xc7;" horiz-adv-x="1185" d="M635 -20l-27 -80q231 -6 232 -162q0 -76 -57.5 -123t-147.5 -47t-227 61l32 80q123 -49 170 -49q41 0 65.5 20.5t24.5 53.5q0 86 -151 86q-33 0 -57 -2l53 166q-213 27 -340 216t-127 484q0 319 150.5 510.5t404.5 191.5q209 0 339 -123.5t169 -359.5l-228 -24 q-35 145 -84 213q-70 96 -194 96q-139 0 -215 -130t-76 -370q0 -238 79 -371t220 -133q106 0 181 80t89 211l228 -26q-25 -213 -162 -341t-344 -128z" />
<glyph unicode="&#xc8;" horiz-adv-x="1099" d="M1036 0h-886v1366h878v-203h-633v-370h508v-199h-508v-383h641v-211zM350 1786l410 -191l-39 -106l-430 145z" />
<glyph unicode="&#xc9;" horiz-adv-x="1099" d="M1036 0h-886v1366h878v-203h-633v-370h508v-199h-508v-383h641v-211zM852 1786l61 -152l-430 -145l-39 106z" />
<glyph unicode="&#xca;" horiz-adv-x="1099" d="M1036 0h-886v1366h878v-203h-633v-370h508v-199h-508v-383h641v-211zM600 1776l356 -260l-190 -21l-166 111l-166 -111l-190 21z" />
<glyph unicode="&#xcb;" horiz-adv-x="1099" d="M1036 0h-886v1366h878v-203h-633v-370h508v-199h-508v-383h641v-211zM424 1733q47 0 79 -32t32 -81q0 -47 -32 -78t-81 -31q-45 0 -77 31t-32 78t32 80t79 33zM772 1733q47 0 79 -32t32 -81q0 -47 -32 -78t-81 -31q-45 0 -76.5 31t-31.5 78t31.5 80t78.5 33z" />
<glyph unicode="&#xcc;" horiz-adv-x="546" d="M395 0h-245v1366h245v-1366zM31 1786l368 -191l-41 -106l-389 145z" />
<glyph unicode="&#xcd;" horiz-adv-x="546" d="M395 0h-245v1366h245v-1366zM516 1786l62 -152l-392 -145l-39 106z" />
<glyph unicode="&#xce;" horiz-adv-x="546" d="M395 0h-245v1366h245v-1366zM272 1776l322 -260l-184 -21l-138 111l-139 -111l-182 21z" />
<glyph unicode="&#xcf;" horiz-adv-x="546" d="M395 0h-245v1366h245v-1366zM117 1733q47 0 78.5 -32t31.5 -81q0 -47 -31.5 -78t-80.5 -31q-45 0 -77 31t-32 78t32 80t79 33zM424 1733q47 0 79 -32t32 -81q0 -47 -32 -78t-81 -31q-45 0 -77 31t-32 78t32 80t79 33z" />
<glyph unicode="&#xd0;" horiz-adv-x="1341" d="M6 602v191h137v573h504q254 0 422 -170q195 -201 195 -508q0 -356 -236 -553q-166 -135 -436 -135h-449v602h-137zM395 602v-401h207q180 0 287.5 133t107.5 356q0 211 -102 346t-264 135h-236v-378h338v-191h-338z" />
<glyph unicode="&#xd1;" horiz-adv-x="1331" d="M1180 0h-226l-532 872l-37 74l-37 74v-1020h-198v1366h272l477 -805q0 -2 6 -13l17 -30l18 -33l45 -88v969h195v-1366zM952 1735l72 -103q-82 -117 -213 -116q-53 0 -156 47q-76 37 -98 36q-57 0 -137 -79l-74 102q102 117 211 117q55 0 139 -39q96 -43 142 -43 q33 0 57 16.5t57 61.5z" />
<glyph unicode="&#xd2;" horiz-adv-x="1316" d="M664 1386q262 0 418.5 -194.5t156.5 -519.5q0 -309 -162 -500.5t-424 -191.5q-274 0 -424 202q-152 205 -151 506q0 307 164 502.5t422 195.5zM662 1188q-174 0 -246 -141q-72 -137 -72 -367q0 -244 80 -373t231 -129q82 0 152 43t104 115q61 123 62 332q0 520 -311 520z M416 1786l409 -191l-39 -106l-432 145z" />
<glyph unicode="&#xd3;" horiz-adv-x="1316" d="M664 1386q262 0 418.5 -194.5t156.5 -519.5q0 -309 -162 -500.5t-424 -191.5q-274 0 -424 202q-152 205 -151 506q0 307 164 502.5t422 195.5zM662 1188q-174 0 -246 -141q-72 -137 -72 -367q0 -244 80 -373t231 -129q82 0 152 43t104 115q61 123 62 332q0 520 -311 520z M922 1786l59 -152l-430 -145l-39 106z" />
<glyph unicode="&#xd4;" horiz-adv-x="1316" d="M664 1386q262 0 418.5 -194.5t156.5 -519.5q0 -309 -162 -500.5t-424 -191.5q-274 0 -424 202q-152 205 -151 506q0 307 164 502.5t422 195.5zM662 1188q-174 0 -246 -141q-72 -137 -72 -367q0 -244 80 -373t231 -129q82 0 152 43t104 115q61 123 62 332q0 520 -311 520z M666 1776l354 -260l-189 -21l-165 111l-166 -111l-191 21z" />
<glyph unicode="&#xd5;" horiz-adv-x="1316" d="M664 1386q262 0 418.5 -194.5t156.5 -519.5q0 -309 -162 -500.5t-424 -191.5q-274 0 -424 202q-152 205 -151 506q0 307 164 502.5t422 195.5zM662 1188q-174 0 -246 -141q-72 -137 -72 -367q0 -244 80 -373t231 -129q82 0 152 43t104 115q61 123 62 332q0 520 -311 520z M944 1735l74 -103q-84 -117 -213 -116q-53 0 -156 47q-76 37 -100 36q-55 0 -137 -79l-72 102q98 117 209 117q55 0 141 -39q96 -43 139 -43q62 0 115 78z" />
<glyph unicode="&#xd6;" horiz-adv-x="1316" d="M664 1386q262 0 418.5 -194.5t156.5 -519.5q0 -309 -162 -500.5t-424 -191.5q-274 0 -424 202q-152 205 -151 506q0 307 164 502.5t422 195.5zM662 1188q-174 0 -246 -141q-72 -137 -72 -367q0 -244 80 -373t231 -129q82 0 152 43t104 115q61 123 62 332q0 520 -311 520z M489.5 1733q47.5 0 79 -32t31.5 -81q0 -47 -31.5 -78t-81.5 -31q-45 0 -76.5 31t-31.5 78t31.5 80t79 33zM838 1733q47 0 78.5 -32t31.5 -81q0 -47 -31.5 -78t-80.5 -31q-45 0 -77 31t-32 78t32 80t79 33z" />
<glyph unicode="&#xd7;" d="M903 1126l135 -135l-301 -301l299 -301l-133 -135l-301 301l-301 -301l-135 135l301 301l-301 301l135 135l301 -301z" />
<glyph unicode="&#xd8;" horiz-adv-x="1316" d="M1262 1421l-168 -245q145 -197 145 -498q0 -315 -160.5 -506.5t-423.5 -191.5q-188 0 -315 96l-92 -131h-191l168 241q-145 227 -145 500q0 311 163 505.5t423 194.5q92 0 157.5 -19t157.5 -75l88 129h193zM940 961l-469 -707q82 -76 186 -76q82 0 152 43t104 115 q59 125 60 342q0 140 -33 283zM383 410l467 706q-45 43 -84 57.5t-104 14.5q-80 0 -145.5 -38t-98.5 -103q-72 -143 -72 -363q0 -163 37 -274z" />
<glyph unicode="&#xd9;" horiz-adv-x="1218" d="M1087 1366v-879q0 -154 -23.5 -231.5t-90.5 -144.5q-131 -131 -363 -131q-238 0 -364 133q-59 61 -84 142t-25 216v895h252v-879q0 -160 60 -221q68 -72 192 -71q139 0 203 84q49 66 49 208v879h194zM360 1786l408 -191l-39 -106l-430 145z" />
<glyph unicode="&#xda;" horiz-adv-x="1218" d="M1087 1366v-879q0 -154 -23.5 -231.5t-90.5 -144.5q-131 -131 -363 -131q-238 0 -364 133q-59 61 -84 142t-25 216v895h252v-879q0 -160 60 -221q68 -72 192 -71q139 0 203 84q49 66 49 208v879h194zM879 1786l61 -152l-430 -145l-39 106z" />
<glyph unicode="&#xdb;" horiz-adv-x="1218" d="M1087 1366v-879q0 -154 -23.5 -231.5t-90.5 -144.5q-131 -131 -363 -131q-238 0 -364 133q-59 61 -84 142t-25 216v895h252v-879q0 -160 60 -221q68 -72 192 -71q139 0 203 84q49 66 49 208v879h194zM618 1776l357 -260l-191 -21l-166 111l-165 -111l-189 21z" />
<glyph unicode="&#xdc;" horiz-adv-x="1218" d="M1087 1366v-879q0 -154 -23.5 -231.5t-90.5 -144.5q-131 -131 -363 -131q-238 0 -364 133q-59 61 -84 142t-25 216v895h252v-879q0 -160 60 -221q68 -72 192 -71q139 0 203 84q49 66 49 208v879h194zM442 1733q47 0 79 -32t32 -81q0 -47 -32 -78t-81 -31q-47 0 -77.5 31 t-30.5 78t31.5 80t78.5 33zM790.5 1733q47.5 0 79 -32t31.5 -81q0 -47 -31.5 -78t-81.5 -31q-47 0 -77.5 31t-30.5 78t31.5 80t79 33z" />
<glyph unicode="&#xdd;" horiz-adv-x="1114" d="M698 0h-260v575l-465 791h297l324 -563l309 563h238l-443 -791v-575zM840 1786l61 -152l-430 -145l-39 106z" />
<glyph unicode="&#xde;" horiz-adv-x="1241" d="M395 0h-245v1366h245v-192h314q174 0 286 -68q184 -117 185 -340q0 -182 -124 -299t-319 -117h-342v-350zM395 561h291q109 0 172.5 54.5t63.5 148.5t-62 149q-55 55 -196 56h-269v-408z" />
<glyph unicode="&#xdf;" horiz-adv-x="1140" d="M371 -94h-228v831h-110v178h110q8 193 50 299q45 115 155.5 182.5t253.5 67.5q168 0 278.5 -90t110.5 -227q0 -80 -41 -148.5t-110 -103.5q-78 -37 -201 -61q-27 -25 -27 -39.5t16.5 -23.5t86.5 -36q2 0 29 -12l65 -29l55 -24q233 -104 234 -328q0 -168 -120 -277.5 t-304 -109.5q-98 0 -207 39l49 153q63 -18 139 -18q133 0 183 49q45 45 45 103q0 59 -46 105t-157 97q-139 63 -189.5 114.5t-50.5 131.5q0 55 20.5 99t76.5 114q31 12 43 16q109 41 144.5 77t35.5 104q0 74 -47 119t-123 45q-98 0 -158.5 -69t-60.5 -181v-1147z" />
<glyph unicode="&#xe0;" horiz-adv-x="1105" d="M1001 0h-219q-27 98 -34 205q-51 -119 -133.5 -172t-208.5 -53q-147 0 -240.5 86t-93.5 223q0 242 290 313q139 35 386 35v76q0 156 -216 155q-104 0 -159.5 -36.5t-73.5 -118.5l-195 28q23 135 134 209q117 80 323 80q250 0 346 -110q39 -43 51.5 -95.5t12.5 -165.5 v-454q-1 -90 30 -205zM748 422v92q-442 0 -443 -211q0 -70 47 -110.5t131 -40.5q119 0 192 74.5t73 195.5zM334 1487l391 -219l-41 -107l-418 176z" />
<glyph unicode="&#xe1;" horiz-adv-x="1105" d="M1001 0h-219q-27 98 -34 205q-51 -119 -133.5 -172t-208.5 -53q-147 0 -240.5 86t-93.5 223q0 242 290 313q139 35 386 35v76q0 156 -216 155q-104 0 -159.5 -36.5t-73.5 -118.5l-195 28q23 135 134 209q117 80 323 80q250 0 346 -110q39 -43 51.5 -95.5t12.5 -165.5 v-454q-1 -90 30 -205zM748 422v92q-442 0 -443 -211q0 -70 47 -110.5t131 -40.5q119 0 192 74.5t73 195.5zM799 1487l65 -150l-415 -176l-43 107z" />
<glyph unicode="&#xe2;" horiz-adv-x="1105" d="M1001 0h-219q-27 98 -34 205q-51 -119 -133.5 -172t-208.5 -53q-147 0 -240.5 86t-93.5 223q0 242 290 313q139 35 386 35v76q0 156 -216 155q-104 0 -159.5 -36.5t-73.5 -118.5l-195 28q23 135 134 209q117 80 323 80q250 0 346 -110q39 -43 51.5 -95.5t12.5 -165.5 v-454q-1 -90 30 -205zM748 422v92q-442 0 -443 -211q0 -70 47 -110.5t131 -40.5q119 0 192 74.5t73 195.5zM565 1477l348 -289l-182 -21l-166 131l-168 -131l-180 21z" />
<glyph unicode="&#xe3;" horiz-adv-x="1105" d="M1001 0h-219q-27 98 -34 205q-51 -119 -133.5 -172t-208.5 -53q-147 0 -240.5 86t-93.5 223q0 242 290 313q139 35 386 35v76q0 156 -216 155q-104 0 -159.5 -36.5t-73.5 -118.5l-195 28q23 135 134 209q117 80 323 80q250 0 346 -110q39 -43 51.5 -95.5t12.5 -165.5 v-454q-1 -90 30 -205zM748 422v92q-442 0 -443 -211q0 -70 47 -110.5t131 -40.5q119 0 192 74.5t73 195.5zM821 1421l70 -102q-29 -49 -87.5 -83t-117.5 -34t-149 47q-70 37 -103 37q-47 0 -125 -80l-69 103q96 117 200 116q49 0 135 -39q92 -43 136 -43q57 0 110 78z" />
<glyph unicode="&#xe4;" horiz-adv-x="1105" d="M1001 0h-219q-27 98 -34 205q-51 -119 -133.5 -172t-208.5 -53q-147 0 -240.5 86t-93.5 223q0 242 290 313q139 35 386 35v76q0 156 -216 155q-104 0 -159.5 -36.5t-73.5 -118.5l-195 28q23 135 134 209q117 80 323 80q250 0 346 -110q39 -43 51.5 -95.5t12.5 -165.5 v-454q-1 -90 30 -205zM748 422v92q-442 0 -443 -211q0 -70 47 -110.5t131 -40.5q119 0 192 74.5t73 195.5zM395 1409q47 0 79 -31.5t32 -81.5q0 -47 -32 -77.5t-81 -30.5q-45 0 -76.5 30.5t-31.5 77.5t31.5 80t78.5 33zM729 1409q47 0 79 -31.5t32 -81.5q0 -47 -32 -77.5 t-81 -30.5q-47 0 -78 30.5t-31 77.5t32 80t79 33z" />
<glyph unicode="&#xe5;" horiz-adv-x="1105" d="M1001 0h-219q-27 98 -34 205q-51 -119 -133.5 -172t-208.5 -53q-147 0 -240.5 86t-93.5 223q0 242 290 313q139 35 386 35v76q0 156 -216 155q-104 0 -159.5 -36.5t-73.5 -118.5l-195 28q23 135 134 209q117 80 323 80q250 0 346 -110q39 -43 51.5 -95.5t12.5 -165.5 v-454q-1 -90 30 -205zM748 422v92q-442 0 -443 -211q0 -70 47 -110.5t131 -40.5q119 0 192 74.5t73 195.5zM561 1505q80 0 133.5 -53t53.5 -133q0 -76 -54.5 -130t-132.5 -54t-132 54t-54 130q0 78 54 132t132 54zM565 1401q-39 0 -62.5 -22.5t-23.5 -57.5q0 -37 22.5 -59.5 t59.5 -22.5t59.5 22.5t22.5 57.5t-22.5 58.5t-55.5 23.5z" />
<glyph unicode="&#xe6;" horiz-adv-x="1757" d="M1686 471h-713q2 -113 35 -182q29 -61 87 -96t130 -35q168 0 231 159l211 -34q-43 -139 -167 -221t-292 -82q-131 0 -234.5 54t-160.5 154q-78 -113 -164 -160.5t-209 -47.5q-168 0 -267 83.5t-99 225.5q0 164 153.5 252t438.5 88q47 0 90 -4q-2 98 -7.5 127.5 t-27.5 54.5q-53 55 -176 55q-178 0 -223 -139l-203 25q27 109 92 167q127 115 358 115q109 0 173.5 -22.5t158.5 -92.5q139 115 318 115q215 0 341 -134t126 -364v-61zM981 625h469q-8 117 -69.5 180t-166.5 63q-98 0 -157.5 -62t-75.5 -181zM754 502q-160 0 -262 -29 q-170 -43 -170 -176q0 -68 46 -109t124 -41q86 0 154.5 49.5t90.5 125.5q17 59 17 180z" />
<glyph unicode="&#xe7;" horiz-adv-x="954" d="M514 -20l-22 -74q90 -6 131 -27q84 -45 84 -133q0 -68 -56.5 -116t-136.5 -48q-72 0 -205 60l33 79q90 -49 156 -49q33 0 56.5 20.5t23.5 49.5q0 39 -41 62.5t-113 23.5q-25 0 -43 -2l51 158q-166 27 -263 167t-97 353q0 236 125 381t325 145q197 0 301 -127 q68 -80 92 -221l-196 -27q-25 188 -184 189q-104 0 -163 -92.5t-59 -255.5q0 -150 55.5 -234t151.5 -84q152 0 199 193l196 -21q-35 -176 -138 -272t-263 -98z" />
<glyph unicode="&#xe8;" horiz-adv-x="1073" d="M778 324l207 -29q-104 -315 -448 -315q-211 0 -338 142t-127 379.5t131 383t344 145.5q219 0 335.5 -143.5t118.5 -409.5h-692v-28q2 -137 64.5 -213t177.5 -76q88 0 140 38t87 126zM309 625h457q-6 96 -51 157q-66 88 -176 88q-96 0 -156 -63t-74 -182zM326 1487 l393 -219l-43 -107l-416 176z" />
<glyph unicode="&#xe9;" horiz-adv-x="1073" d="M778 324l207 -29q-104 -315 -448 -315q-211 0 -338 142t-127 379.5t131 383t344 145.5q219 0 335.5 -143.5t118.5 -409.5h-692v-28q2 -137 64.5 -213t177.5 -76q88 0 140 38t87 126zM309 625h457q-6 96 -51 157q-66 88 -176 88q-96 0 -156 -63t-74 -182zM803 1487 l65 -150l-415 -176l-43 107z" />
<glyph unicode="&#xea;" horiz-adv-x="1073" d="M778 324l207 -29q-104 -315 -448 -315q-211 0 -338 142t-127 379.5t131 383t344 145.5q219 0 335.5 -143.5t118.5 -409.5h-692v-28q2 -137 64.5 -213t177.5 -76q88 0 140 38t87 126zM309 625h457q-6 96 -51 157q-66 88 -176 88q-96 0 -156 -63t-74 -182zM565 1477 l346 -289l-180 -21l-166 131l-168 -131l-180 21z" />
<glyph unicode="&#xeb;" horiz-adv-x="1073" d="M778 324l207 -29q-104 -315 -448 -315q-211 0 -338 142t-127 379.5t131 383t344 145.5q219 0 335.5 -143.5t118.5 -409.5h-692v-28q2 -137 64.5 -213t177.5 -76q88 0 140 38t87 126zM309 625h457q-6 96 -51 157q-66 88 -176 88q-96 0 -156 -63t-74 -182zM395 1409 q47 0 79 -31.5t32 -81.5q0 -47 -32 -77.5t-81 -30.5q-45 0 -76.5 30.5t-31.5 77.5t31.5 80t78.5 33zM729 1409q47 0 79 -31.5t32 -81.5q0 -47 -32 -77.5t-81 -30.5q-47 0 -78 30.5t-31 77.5t32 80t79 33z" />
<glyph unicode="&#xec;" horiz-adv-x="501" d="M365 0h-228v1010h228v-1010zM41 1487l344 -219l-41 -107l-377 182z" />
<glyph unicode="&#xed;" horiz-adv-x="501" d="M365 0h-228v1010h228v-1010zM461 1487l74 -144l-375 -182l-43 107z" />
<glyph unicode="&#xee;" horiz-adv-x="501" d="M365 0h-228v1010h228v-1010zM250 1477l301 -289l-174 -21l-127 131l-125 -131l-174 21z" />
<glyph unicode="&#xef;" horiz-adv-x="501" d="M362 0h-227v1010h227v-1010zM108.5 1405q45.5 0 75 -29.5t29.5 -77.5q0 -45 -29.5 -73.5t-77.5 -28.5q-43 0 -72.5 29.5t-29.5 72.5q0 45 29.5 76t75 31zM389 1405q45 0 75 -29.5t30 -77.5q0 -45 -30 -73.5t-77 -28.5q-43 0 -72.5 29.5t-29.5 72.5q0 45 29.5 76t74.5 31z " />
<glyph unicode="&#xf0;" horiz-adv-x="1083" d="M326 1169l168 91q-49 35 -185 94l43 80q131 -27 271 -111l194 96l72 -78l-176 -90q299 -309 299 -725q0 -244 -131 -394t-344 -150q-238 0 -361 178q-104 150 -104 340q0 213 126 362.5t304 149.5q72 0 123 -27t108 -92q-18 74 -62 154.5t-93 134.5l-193 -97zM543 821 q-133 0 -191 -121q-45 -90 -45 -202q0 -139 62 -244q55 -88 170 -88q106 0 166.5 86t60.5 237q0 156 -59.5 244t-163.5 88z" />
<glyph unicode="&#xf1;" horiz-adv-x="1107" d="M973 0h-228v631q0 92 -43 146t-114 54q-57 0 -107.5 -33.5t-79.5 -90.5q-37 -74 -36 -189v-518h-228v1010h207v-234q63 137 135 195.5t174 58.5q88 0 166 -42t111 -107q43 -84 43 -230v-651zM797 1421l69 -102q-29 -49 -86 -83t-116.5 -34t-149.5 47q-70 37 -104 37 q-45 0 -125 -80l-70 103q98 117 203 116q47 0 133 -39q94 -43 135 -43q33 0 56.5 16.5t54.5 61.5z" />
<glyph unicode="&#xf2;" horiz-adv-x="1083" d="M545 1030q252 0 383 -207q84 -135 84 -319q0 -231 -133.5 -377.5t-346.5 -146.5q-236 0 -360 186q-100 145 -100 342q0 231 132 376.5t341 145.5zM545 844q-111 0 -171.5 -88t-60.5 -250q0 -164 59.5 -252t168.5 -88q111 0 170 89t59 255q0 162 -58 248t-167 86z M309 1487l393 -219l-40 -107l-418 176z" />
<glyph unicode="&#xf3;" horiz-adv-x="1083" d="M545 1030q252 0 383 -207q84 -135 84 -319q0 -231 -133.5 -377.5t-346.5 -146.5q-236 0 -360 186q-100 145 -100 342q0 231 132 376.5t341 145.5zM545 844q-111 0 -171.5 -88t-60.5 -250q0 -164 59.5 -252t168.5 -88q111 0 170 89t59 255q0 162 -58 248t-167 86z M786 1487l66 -150l-416 -176l-43 107z" />
<glyph unicode="&#xf4;" horiz-adv-x="1083" d="M545 1030q252 0 383 -207q84 -135 84 -319q0 -231 -133.5 -377.5t-346.5 -146.5q-236 0 -360 186q-100 145 -100 342q0 231 132 376.5t341 145.5zM545 844q-111 0 -171.5 -88t-60.5 -250q0 -164 59.5 -252t168.5 -88q111 0 170 89t59 255q0 162 -58 248t-167 86z M549 1477l346 -289l-180 -21l-166 131l-168 -131l-180 21z" />
<glyph unicode="&#xf5;" horiz-adv-x="1083" d="M545 1030q252 0 383 -207q84 -135 84 -319q0 -231 -133.5 -377.5t-346.5 -146.5q-236 0 -360 186q-100 145 -100 342q0 231 132 376.5t341 145.5zM545 844q-111 0 -171.5 -88t-60.5 -250q0 -164 59.5 -252t168.5 -88q111 0 170 89t59 255q0 162 -58 248t-167 86z M817 1421l70 -102q-29 -49 -86.5 -83t-116.5 -34t-149 47q-70 37 -105 37q-45 0 -125 -80l-69 103q98 117 202 116q47 0 133 -39q94 -43 136 -43q33 0 56 16.5t54 61.5z" />
<glyph unicode="&#xf6;" horiz-adv-x="1083" d="M545 1030q252 0 383 -207q84 -135 84 -319q0 -231 -133.5 -377.5t-346.5 -146.5q-236 0 -360 186q-100 145 -100 342q0 231 132 376.5t341 145.5zM545 844q-111 0 -171.5 -88t-60.5 -250q0 -164 59.5 -252t168.5 -88q111 0 170 89t59 255q0 162 -58 248t-167 86z M379 1409q47 0 78.5 -31.5t31.5 -81.5q0 -47 -31.5 -77.5t-80.5 -30.5q-45 0 -77 30.5t-32 77.5t32 80t79 33zM713 1409q47 0 78.5 -31.5t31.5 -81.5q0 -47 -31.5 -77.5t-80.5 -30.5q-47 0 -78 30.5t-31 77.5t32 80t79 33z" />
<glyph unicode="&#xf7;" d="M600 463q49 0 85 -36t36 -87t-36 -87t-87 -36t-87 36t-36 87t36 87t89 36zM602 1159q49 0 85 -36t36 -87t-36 -87t-87 -36t-87 36t-36 87t36 87t89 36zM1106 784v-190h-1012v190h1012z" />
<glyph unicode="&#xf8;" horiz-adv-x="1083" d="M1012 1059l-129 -176q74 -96 101.5 -176t27.5 -197q0 -240 -132 -385t-352 -145q-123 0 -235 63l-80 -109h-141l133 187q-133 170 -133 387q0 233 133 377.5t346 144.5q125 0 246 -69l71 98h144zM739 692l-323 -483q61 -43 125 -43q229 0 229 354q0 98 -31 172zM340 309 l336 490q-57 45 -135 45q-109 0 -168.5 -88t-59.5 -248q0 -93 27 -199z" />
<glyph unicode="&#xf9;" horiz-adv-x="1103" d="M969 0h-213v219q-20 -63 -43 -98t-64 -68q-88 -74 -213 -73q-162 0 -248 122q-51 78 -51 201v707h234v-658q0 -72 20 -110q41 -68 123 -68q59 0 115.5 40t81.5 101q31 70 30 209v486h228v-1010zM322 1487l393 -219l-43 -107l-416 176z" />
<glyph unicode="&#xfa;" horiz-adv-x="1103" d="M969 0h-213v219q-20 -63 -43 -98t-64 -68q-88 -74 -213 -73q-162 0 -248 122q-51 78 -51 201v707h234v-658q0 -72 20 -110q41 -68 123 -68q59 0 115.5 40t81.5 101q31 70 30 209v486h228v-1010zM799 1487l65 -150l-415 -176l-43 107z" />
<glyph unicode="&#xfb;" horiz-adv-x="1103" d="M969 0h-213v219q-20 -63 -43 -98t-64 -68q-88 -74 -213 -73q-162 0 -248 122q-51 78 -51 201v707h234v-658q0 -72 20 -110q41 -68 123 -68q59 0 115.5 40t81.5 101q31 70 30 209v486h228v-1010zM553 1477l348 -289l-180 -21l-168 131l-168 -131l-180 21z" />
<glyph unicode="&#xfc;" horiz-adv-x="1103" d="M969 0h-213v219q-20 -63 -43 -98t-64 -68q-88 -74 -213 -73q-162 0 -248 122q-51 78 -51 201v707h234v-658q0 -72 20 -110q41 -68 123 -68q59 0 115.5 40t81.5 101q31 70 30 209v486h228v-1010zM383 1409q47 0 79 -31.5t32 -81.5q0 -47 -32 -77.5t-81 -30.5 q-45 0 -77 30.5t-32 77.5t32 80t79 33zM719 1409q47 0 78.5 -31.5t31.5 -81.5q0 -47 -31.5 -77.5t-80.5 -30.5q-45 0 -77 30.5t-32 77.5t32 80t79 33z" />
<glyph unicode="&#xfd;" horiz-adv-x="905" d="M891 1010l-393 -1151q-41 -117 -105.5 -170.5t-169.5 -53.5q-33 0 -131 9v180q41 -2 113 -2q100 0 133 57q12 20 27.5 63.5t15.5 55.5q0 8 -21 63l-346 949h238l246 -668l211 668h182zM719 1487l65 -150l-415 -176l-43 107z" />
<glyph unicode="&#xfe;" horiz-adv-x="1097" d="M365 -342h-228v1708h228v-512q94 176 294 176q164 0 259 -133q109 -156 108 -385q0 -248 -119 -408q-92 -125 -264 -124q-184 0 -278 161v-483zM365 557v-143q0 -111 61 -182.5t158 -71.5q94 0 147 89t53 247q0 166 -53 257t-149 91q-94 0 -155.5 -81t-61.5 -206z" />
<glyph unicode="&#xff;" horiz-adv-x="905" d="M891 1010l-393 -1151q-41 -117 -105.5 -170.5t-169.5 -53.5q-33 0 -131 9v180q41 -2 113 -2q100 0 133 57q12 20 27.5 63.5t15.5 55.5q0 8 -21 63l-346 949h238l246 -668l211 668h182zM305 1409q47 0 79 -31.5t32 -81.5q0 -47 -32 -77.5t-81 -30.5q-45 0 -76.5 30.5 t-31.5 77.5t31.5 80t78.5 33zM639 1409q47 0 79 -31.5t32 -81.5q0 -47 -32 -77.5t-81 -30.5q-47 0 -78 30.5t-31 77.5t32 80t79 33z" />
<glyph unicode="&#x152;" horiz-adv-x="1925" d="M952 1366h910v-199h-664v-374h528v-195h-528v-387h664v-211h-910v68q-135 -88 -301 -88q-256 0 -414.5 197.5t-158.5 512.5q0 313 154.5 506t408.5 193q172 0 311 -84v61zM952 438v480q-8 119 -69 180q-84 90 -213 90q-143 0 -234 -113q-92 -115 -92 -373 q0 -516 315 -516q131 0 230 88q35 31 48 66t15 98z" />
<glyph unicode="&#x153;" horiz-adv-x="1728" d="M1657 479h-690q0 -152 62.5 -232.5t180.5 -80.5q170 0 224 156l208 -33q-23 -78 -88 -154q-74 -84 -155.5 -119.5t-198.5 -35.5q-121 0 -199.5 34.5t-136.5 116.5q-72 -84 -145.5 -117.5t-186.5 -33.5q-213 0 -333 147q-127 152 -127 379q0 233 130 378.5t339 145.5 q207 0 323 -151q66 82 143.5 116.5t196.5 34.5q213 0 333 -137t120 -379v-35zM969 621h454q-4 113 -64.5 177t-160.5 64q-206 1 -229 -241zM532 844q-106 0 -165.5 -91t-59.5 -255q0 -158 58.5 -245t164.5 -87q111 0 170.5 91t59.5 263q0 150 -45 223q-58 101 -183 101z" />
<glyph unicode="&#x178;" horiz-adv-x="1114" d="M698 0h-260v575l-465 791h297l324 -563l309 563h238l-443 -791v-575zM401.5 1733q47.5 0 79 -32t31.5 -81q0 -47 -31.5 -78t-81.5 -31q-47 0 -77.5 31t-30.5 78t31.5 80t79 33zM749.5 1733q47.5 0 79 -32t31.5 -81q0 -47 -31.5 -78t-80.5 -31q-47 0 -78 31t-31 78 t31.5 80t79 33z" />
<glyph unicode="&#x2c6;" horiz-adv-x="1024" d="M512 1477l348 -289l-182 -21l-166 131l-168 -131l-180 21z" />
<glyph unicode="&#x2dc;" horiz-adv-x="1024" d="M768 1421l70 -102q-29 -49 -87.5 -83t-118 -34t-149.5 47q-70 37 -102 37q-47 0 -125 -80l-70 103q96 117 201 116q49 0 135 -39q92 -43 135 -43q58 0 111 78z" />
<glyph unicode="&#x2000;" horiz-adv-x="911" />
<glyph unicode="&#x2001;" horiz-adv-x="1824" />
<glyph unicode="&#x2002;" horiz-adv-x="911" />
<glyph unicode="&#x2003;" horiz-adv-x="1824" />
<glyph unicode="&#x2004;" horiz-adv-x="608" />
<glyph unicode="&#x2005;" horiz-adv-x="454" />
<glyph unicode="&#x2006;" horiz-adv-x="303" />
<glyph unicode="&#x2007;" horiz-adv-x="303" />
<glyph unicode="&#x2008;" horiz-adv-x="227" />
<glyph unicode="&#x2009;" horiz-adv-x="364" />
<glyph unicode="&#x200a;" horiz-adv-x="100" />
<glyph unicode="&#x2010;" horiz-adv-x="493" d="M498 612v-186h-502v186h502z" />
<glyph unicode="&#x2011;" horiz-adv-x="493" d="M498 612v-186h-502v186h502z" />
<glyph unicode="&#x2012;" horiz-adv-x="493" d="M498 612v-186h-502v186h502z" />
<glyph unicode="&#x2013;" d="M1016 612v-188h-830v188h830z" />
<glyph unicode="&#x2014;" horiz-adv-x="1366" d="M1436 614v-186h-1508v186h1508z" />
<glyph unicode="&#x2018;" horiz-adv-x="493" d="M133 872v226l154 268h73l-110 -268h110v-226h-227z" />
<glyph unicode="&#x2019;" horiz-adv-x="493" d="M360 1366v-225l-153 -269h-74l111 269h-111v225h227z" />
<glyph unicode="&#x201a;" horiz-adv-x="493" d="M360 225v-225l-153 -268h-74l111 268h-111v225h227z" />
<glyph unicode="&#x201c;" horiz-adv-x="768" d="M129 870v226l150 270h86l-115 -270h96v-226h-217zM418 870v226l149 270h72l-107 -270h107v-226h-221z" />
<glyph unicode="&#x201d;" horiz-adv-x="768" d="M639 1366v-227l-150 -269h-83l114 269h-96v227h215zM350 1366v-227l-149 -269h-72l107 269h-107v227h221z" />
<glyph unicode="&#x201e;" horiz-adv-x="768" d="M639 227v-227l-150 -268h-83l114 268h-96v227h215zM350 227v-227l-149 -268h-72l107 268h-107v227h221z" />
<glyph unicode="&#x2022;" horiz-adv-x="1366" d="M688 977q115 0 198 -84t83 -199q0 -119 -83 -201.5t-200 -82.5q-119 0 -202 82.5t-83 199.5q0 119 83 202t204 83z" />
<glyph unicode="&#x2026;" horiz-adv-x="1517" d="M377 262v-262h-248v262h248zM881 262v-262h-246v262h246zM1389 262v-262h-248v262h248z" />
<glyph unicode="&#x202f;" horiz-adv-x="364" />
<glyph unicode="&#x2039;" horiz-adv-x="417" d="M330 817l-94 -293l94 -280h-94l-160 280l160 293h94z" />
<glyph unicode="&#x203a;" horiz-adv-x="417" d="M88 817h94l160 -293l-160 -280h-94l94 280z" />
<glyph unicode="&#x205f;" horiz-adv-x="454" />
<glyph unicode="&#x20ac;" d="M141 504h-129l47 121h70q-2 23 -2 53q0 29 2 67h-117l47 121h82q47 254 187.5 387t357.5 133q164 0 289 -65q51 -25 119 -94l-86 -228q-88 106 -157 148.5t-157 42.5q-233 0 -288 -324h550l-47 -121h-516v-53q0 -29 2 -67h469l-47 -121h-409q57 -317 301 -318 q86 0 167.5 42t133.5 114v-285q-90 -47 -150.5 -62t-171.5 -15q-180 0 -294.5 75.5t-190.5 241.5q-46 101 -62 207z" />
<glyph unicode="&#x2122;" horiz-adv-x="1591" d="M399 588h-180v645h-217v133h616v-133h-219v-645zM1511 588h-172v610l-209 -610h-94l-209 612v-612h-141v778h250l164 -467l160 467h251v-778z" />
<glyph unicode="&#xe000;" horiz-adv-x="1010" d="M0 1010h1010v-1010h-1010v1010z" />
<glyph unicode="&#xfb01;" horiz-adv-x="1105" d="M969 1366v-240h-236v240h236zM969 1010v-1010h-236v1010h236zM406 0h-236v831h-150v179h150q2 184 66 264q84 113 253 112q49 0 140 -10v-180h-31q-121 0 -156.5 -29.5t-35.5 -132.5v-24h223v-179h-223v-831z" />
<glyph unicode="&#xfb02;" horiz-adv-x="1105" d="M969 1366v-1366h-236v1366h236zM408 0h-236v831h-152v179h152q4 111 16.5 164t49.5 100q82 113 254 112q61 0 137 -10v-182q-25 2 -60 2q-109 0 -145 -59q-16 -29 -16 -127h221v-179h-221v-831z" />
<glyph unicode="&#xfb03;" horiz-adv-x="1796" d="M1659 0h-228v1010h228v-1010zM1659 1128h-228v238h228v-238zM1038 0h-219v831h-149v179h149v25q0 100 14 155q16 61 61.5 110.5t109 69t178.5 19.5q43 0 81 -3v-180q-29 4 -61 4q-109 0 -141 -43q-16 -20 -19.5 -44.5t-3.5 -112.5h225v-179h-225v-831zM391 0h-219v831 h-149v179h149v25q0 100 14 155q16 61 61.5 110.5t109 69t178.5 19.5q43 0 81 -3v-180q-29 4 -61 4q-109 0 -141 -43q-16 -20 -19.5 -44.5t-3.5 -112.5h225v-179h-225v-831z" />
<glyph unicode="&#xfb04;" horiz-adv-x="1796" d="M1659 0h-228v1366h228v-1366zM1038 0h-219v831h-149v179h149v25q0 100 14 155q16 61 61.5 110.5t109 69t178.5 19.5q43 0 81 -3v-180q-29 4 -61 4q-109 0 -141 -43q-16 -20 -19.5 -44.5t-3.5 -112.5h225v-179h-225v-831zM391 0h-219v831h-149v179h149v25q0 100 14 155 q16 61 61.5 110.5t109 69t178.5 19.5q43 0 81 -3v-180q-29 4 -61 4q-109 0 -141 -43q-16 -20 -19.5 -44.5t-3.5 -112.5h225v-179h-225v-831z" />
</font>
</defs>
</svg>
